# xmcd
#
# Track frame offsets:
#	150
#	13022
#	25419
#	42122
#	59250
#	74445
#	87122
#	102417
#	118280
#	133187
#
# Disc length: 2010 seconds
#
# Revision: 1
# Processed by: cddbd v1.5.2PL0 Copyright (c) Steve Scherf et al.
# Submitted via: audiograbber 1.83.01
#
DISCID=8b07d80a
DTITLE=Jim Keegan - That's All I Need To Know
DYEAR=1900
DGENRE=
TTITLE0=Up To My Ears In Tears
TTITLE1=Who Am I
TTITLE2=If Tomorrow Never Comes
TTITLE3=That's All I Need To Know
TTITLE4=What's She Doing Now?
TTITLE5=Tropical Depression
TTITLE6=Who Said You Can't Have It All?
TTITLE7=Tonight I Climbed The Walls
TTITLE8=Someday
TTITLE9=Livin' On Love
EXTD=
EXTT0=
EXTT1=
EXTT2=
EXTT3=
EXTT4=
EXTT5=
EXTT6=
EXTT7=
EXTT8=
EXTT9=
PLAYORDER=
